# File created by Blade
# Date/Time:  Thu Sep 25 17:43:48 2014
# Frame Rate: 120.000 fps
#------------------------------------------------------
:FULLY-SPECIFIED
:DEGREES
89
root -2.082086 37.069166 -0.404802 -353.763393 -118.876421 26.828737
Spine -24.307763 26.460433 -6.206923
Head -14.000798 2.090503 5.516057
LeftShoulder -21.403999 33.359492 23.414395
LeftArm 2.152575 1.234329 -39.187317
LeftForeArm -4.305891 0.000000 8.950188
LeftHand -26.032957 -0.000000 -2.515911
LeftHandThumb1 -26.253704 0.000000 33.147579
RightShoulder -14.528526 5.263410 -40.405055
RightArm -22.823689 -7.267209 28.636420
RightForeArm -18.029829 0.000000 10.915757
RightHand -11.894363 -0.000000 5.690369
RightHandThumb1 -24.326973 -0.000000 -32.862282
LeftUpLeg -81.270967 27.101353 0.115587
LeftLeg 27.519419 -0.000000 -0.000000
LeftFoot 29.149805 28.086936 332.657552
LeftToeBase 5.574893 -0.000000 -0.000000
RightUpLeg 29.298000 -16.292325 -36.792961
RightLeg 8.378815 -0.000000 -0.000000
RightFoot 44.065226 13.380978 -8.853734
RightToeBase 13.559427 -0.000000 -0.000000
90
root -2.764348 36.784506 -0.294025 -353.252914 -119.543519 25.903521
Spine -24.552118 26.722019 -6.168125
Head -12.990056 2.638277 5.610178
LeftShoulder -22.378665 33.640652 22.121901
LeftArm 2.407361 1.294425 -41.212130
LeftForeArm -4.543654 -0.000000 9.146193
LeftHand -25.942245 0.000000 -2.435233
LeftHandThumb1 -26.253704 0.000000 33.147579
RightShoulder -14.733383 4.908716 -39.692979
RightArm -23.360465 -8.308708 31.021537
RightForeArm -16.798332 -0.000000 10.701577
RightHand -11.765599 -0.000000 4.870079
RightHandThumb1 -24.326973 -0.000000 -32.862282
LeftUpLeg -77.154671 26.328558 0.047272
LeftLeg 27.619772 -0.000000 -0.000000
LeftFoot 29.057061 27.437891 333.711562
LeftToeBase 4.066456 -0.000000 -0.000000
RightUpLeg 28.529996 -16.314167 -37.008641
RightLeg 8.012770 -0.000000 -0.000000
RightFoot 43.192262 12.752385 -9.233999
RightToeBase 13.380279 -0.000000 -0.000000
91
root -3.463569 36.459351 -0.198610 -353.004973 -120.195987 24.975096
Spine -24.561044 26.939947 -5.938350
Head -11.753912 3.278147 5.689452
LeftShoulder -23.119347 33.808780 20.860986
LeftArm 2.446080 1.306988 -43.164014
LeftForeArm -4.157681 -0.000000 9.398141
LeftHand -25.756494 -0.000000 -2.684388
LeftHandThumb1 -26.253704 0.000000 33.147579
RightShoulder -14.652875 4.554366 -39.038746
RightArm -24.196660 -7.905681 33.081172
RightForeArm -16.146842 -0.000000 10.880764
RightHand -11.609970 0.000000 4.267630
RightHandThumb1 -24.326973 -0.000000 -32.862282
LeftUpLeg -72.346946 25.333115 0.543615
LeftLeg 27.108384 -0.000000 -0.000000
LeftFoot 29.078713 26.641405 335.683992
LeftToeBase 4.423331 -0.000000 -0.000000
RightUpLeg 28.028561 -16.031148 -37.195596
RightLeg 7.674867 -0.000000 -0.000000
RightFoot 42.247901 12.061885 -9.813129
RightToeBase 12.567525 -0.000000 -0.000000
92
root -4.175613 36.096206 -0.115066 -353.087312 -120.873828 24.235745
Spine -24.371171 27.252597 -5.502260
Head -10.700301 3.884353 5.736876
LeftShoulder -23.883806 33.906616 19.506466
LeftArm 2.692845 1.513986 -44.937669
LeftForeArm -3.593511 -0.000000 9.467727
LeftHand -25.625766 0.000000 -3.004807
LeftHandThumb1 -26.253704 0.000000 33.147579
RightShoulder -14.775638 4.238408 -38.495070
RightArm -24.792154 -7.161840 35.009820
RightForeArm -15.634147 -0.000000 11.008985
RightHand -11.286671 -0.000000 3.996996
RightHandThumb1 -24.326973 -0.000000 -32.862282
LeftUpLeg -67.152197 24.097599 1.498938
LeftLeg 26.191098 -0.000000 -0.000000
LeftFoot 29.191683 26.485098 337.620582
LeftToeBase 4.197782 -0.000000 -0.000000
RightUpLeg 27.624381 -15.455217 -37.228890
RightLeg 7.460906 -0.000000 -0.000000
RightFoot 41.204574 10.854788 -10.062161
RightToeBase 11.818981 -0.000000 -0.000000
93
root -4.895069 35.693123 -0.049205 -353.572662 -121.572743 23.704269
Spine -23.904958 27.630307 -4.813882
Head -9.714363 4.332841 5.787694
LeftShoulder -24.442023 33.859171 18.254421
LeftArm 2.902968 2.177233 -46.650725
LeftForeArm -2.930837 -0.000000 9.408287
LeftHand -25.652288 -0.000000 -4.042875
LeftHandThumb1 -26.253704 0.000000 33.147579
RightShoulder -14.913748 4.147794 -38.024894
RightArm -25.509966 -6.147347 36.754781
RightForeArm -15.493754 0.000000 11.270168
RightHand -11.077684 -0.000000 3.944912
RightHandThumb1 -24.326973 -0.000000 -32.862282
LeftUpLeg -61.572209 22.482984 2.931965
LeftLeg 24.872429 -0.000000 -0.000000
LeftFoot 29.569627 27.128895 339.387340
LeftToeBase 4.599451 -0.000000 -0.000000
RightUpLeg 27.416466 -14.620707 -37.154187
RightLeg 7.374925 -0.000000 -0.000000
RightFoot 39.964060 9.542006 -10.306511
RightToeBase 10.731002 -0.000000 -0.000000
94
root -5.612653 35.248250 -0.009626 -354.711739 -122.227710 23.591300
Spine -23.027852 28.009322 -3.609571
Head -8.826286 4.735924 5.678660
LeftShoulder -24.606276 33.614899 17.227591
LeftArm 2.806897 3.242494 -48.465910
LeftForeArm -2.574916 -0.000000 9.435996
LeftHand -25.730125 -0.000000 -4.799399
LeftHandThumb1 -26.253704 0.000000 33.147579
RightShoulder -15.084259 4.117933 -37.667158
RightArm -26.145493 -4.954559 38.367071
RightForeArm -15.757608 0.000000 11.625250
RightHand -10.579406 0.000000 3.853030
RightHandThumb1 -24.326973 -0.000000 -32.862282
LeftUpLeg -55.658125 20.282591 4.966852
LeftLeg 23.261801 -0.000000 -0.000000
LeftFoot 30.114788 28.076611 340.775506
LeftToeBase 4.252748 -0.000000 -0.000000
RightUpLeg 27.535239 -13.488068 -36.823345
RightLeg 7.366575 -0.000000 -0.000000
RightFoot 38.509127 8.034298 -10.552677
RightToeBase 9.403316 -0.000000 -0.000000
95
root -6.319877 34.773183 0.003695 -356.334280 -122.959024 23.921217
Spine -22.013005 28.418608 -2.067870
Head -8.030230 5.141622 5.667191
LeftShoulder -24.536233 33.381587 16.414255
LeftArm 2.594616 4.525921 -50.408912
LeftForeArm -2.703050 -0.000000 9.507378
LeftHand -25.584110 -0.000000 -5.256452
LeftHandThumb1 -26.253704 0.000000 33.147579
RightShoulder -15.277009 4.198988 -37.325731
RightArm -26.728151 -4.031398 40.000491
RightForeArm -16.036354 -0.000000 11.960568
RightHand -10.260419 -0.000000 3.759001
RightHandThumb1 -24.326973 -0.000000 -32.862282
LeftUpLeg -49.831811 17.674754 7.210197
LeftLeg 21.712766 -0.000000 -0.000000
LeftFoot 30.392705 28.457432 341.722715
LeftToeBase -11.446416 -0.000000 0.000000
RightUpLeg 27.766057 -12.056359 -36.103981
RightLeg 7.425907 -0.000000 -0.000000
RightFoot 36.710825 6.415224 -10.470138
RightToeBase 8.096174 -0.000000 -0.000000
96
root -6.998834 34.285698 0.019473 -357.978424 -123.507314 24.454718
Spine -21.090644 28.515224 -0.396452
Head -7.352515 5.515773 5.687267
LeftShoulder -24.278386 33.075813 15.690215
LeftArm 2.179145 5.802293 -52.414178
LeftForeArm -2.930974 -0.000000 9.641469
LeftHand -25.717176 0.000000 -5.707907
LeftHandThumb1 -26.253704 0.000000 33.147579
RightShoulder -15.490177 4.448545 -36.959987
RightArm -27.283218 -3.347087 41.586762
RightForeArm -16.424849 0.000000 12.566942
RightHand -10.108371 -0.000000 3.786117
RightHandThumb1 -24.326973 -0.000000 -32.862282
LeftUpLeg -44.894765 14.792854 8.901374
LeftLeg 20.948920 -0.000000 -0.000000
LeftFoot 14.892436 25.678543 337.615969
LeftToeBase -18.233611 -0.000000 0.000000
RightUpLeg 27.903134 -10.877300 -35.187179
RightLeg 7.876432 -0.000000 -0.000000
RightFoot 34.226841 4.353574 -9.998400
RightToeBase 6.842929 -0.000000 -0.000000
97
root -7.696955 33.734146 -0.050803 -361.013469 -124.457497 25.889482
Spine -19.293037 28.846275 2.257639
Head -7.014401 6.001974 5.740511
LeftShoulder -23.917109 32.800124 15.116183
LeftArm 1.712694 6.948100 -54.590160
LeftForeArm -3.222690 -0.000000 9.826743
LeftHand -25.943468 -0.000000 -6.083006
LeftHandThumb1 -26.253704 0.000000 33.147579
RightShoulder -15.735858 4.951326 -36.740503
RightArm -27.731226 -3.391581 43.333963
RightForeArm -16.050236 0.000000 12.974990
RightHand -9.502008 -0.000000 3.564843
RightHandThumb1 -24.326973 -0.000000 -32.862282
LeftUpLeg -39.230898 12.555351 11.192666
LeftLeg 19.405003 -0.000000 -0.000000
LeftFoot -2.343554 26.114722 334.178436
LeftToeBase -0.957040 -0.000000 0.000000
RightUpLeg 28.545580 -9.480298 -33.969030
RightLeg 8.498696 -0.000000 -0.000000
RightFoot 31.110813 2.367777 -9.504799
RightToeBase 4.962370 -0.000000 -0.000000
98
root -8.324355 33.227411 -0.086237 -363.072236 -125.186853 27.053858
Spine -18.366397 28.777698 4.162068
Head -6.942870 6.525384 6.239116
LeftShoulder -23.518640 32.444355 14.562476
LeftArm 1.355416 7.930648 -56.593854
LeftForeArm -3.321870 -0.000000 9.875412
LeftHand -26.059454 -0.000000 -6.285802
LeftHandThumb1 -26.253704 0.000000 33.147579
RightShoulder -16.145925 5.472441 -36.177315
RightArm -28.084438 -3.433230 44.975754
RightForeArm -16.158323 -0.000000 13.722138
RightHand -9.521010 -0.000000 3.658337
RightHandThumb1 -24.326973 -0.000000 -32.862282
LeftUpLeg -35.175238 9.826116 13.169330
LeftLeg 18.182222 -0.000000 -0.000000
LeftFoot -14.229541 24.513389 332.114866
LeftToeBase 9.983813 -0.000000 -0.000000
RightUpLeg 28.386979 -8.637305 -32.574730
RightLeg 9.820776 -0.000000 -0.000000
RightFoot 27.265338 0.335215 -9.688112
RightToeBase 3.101227 -0.000000 -0.000000
99
root -8.866115 32.797250 -0.043055 -363.324904 -125.557984 27.512531
Spine -19.051800 28.282248 4.607198
Head -6.887735 7.117644 7.404084
LeftShoulder -23.255006 32.273327 13.753527
LeftArm 1.394542 8.703509 -58.119240
LeftForeArm -3.199402 -0.000000 9.868021
LeftHand -26.319312 -0.000000 -6.775475
LeftHandThumb1 -26.253704 0.000000 33.147579
RightShoulder -16.531393 6.040864 -35.025317
RightArm -28.602603 -3.487367 46.485902
RightForeArm -16.163471 -0.000000 14.695989
RightHand -9.528988 -0.000000 3.426207
RightHandThumb1 -24.326973 -0.000000 -32.862282
LeftUpLeg -33.555960 7.208735 14.046787
LeftLeg 16.838075 -0.000000 -0.000000
LeftFoot -18.236215 26.394890 336.408324
LeftToeBase 8.079938 -0.000000 -0.000000
RightUpLeg 26.852472 -8.269255 -31.046763
RightLeg 11.932514 -0.000000 -0.000000
RightFoot 22.994482 -1.939839 -10.578758
RightToeBase 0.845284 -0.000000 -0.000000
